<svg width="107" height="32" viewBox="0 0 107 32" fill="none" xmlns="http://www.w3.org/2000/svg">
<path d="M83.4703 22.1115C83.0634 21.7025 82.705 21.2475 82.4023 20.7539L87.758 30.0506C88.2479 30.9022 89.043 30.9022 89.5329 30.0506L94.8885 20.7539C94.5859 21.2475 94.2275 21.7037 93.8206 22.1115C92.4972 23.438 90.6665 24.2597 88.6461 24.2597C86.6244 24.2597 84.7937 23.438 83.4703 22.1115Z" fill="#016D4A"/>
<path d="M83.4704 22.1108C84.7938 23.4373 86.6245 24.259 88.6462 24.259C90.6667 24.259 92.4974 23.4373 93.8208 22.1108C94.2276 21.703 94.5861 21.2467 94.8887 20.7532L95.0896 20.4051C95.6465 19.3683 95.964 18.1823 95.964 16.9229C95.964 12.8974 93.3966 8.37092 88.5333 5.00806C83.7371 8.37092 81.3271 12.8974 81.3271 16.9229C81.3271 18.1823 81.6447 19.3695 82.2028 20.4063L82.4025 20.7532C82.7051 21.2467 83.0636 21.7018 83.4704 22.1108Z" fill="#009B4D"/>
<path d="M72.2029 0.003684C71.2243 -0.0373416 70.8274 0.656365 71.3174 1.50671L82.2023 20.4046C81.6442 19.369 81.3267 18.1818 81.3267 16.9224C81.3267 12.8957 83.7353 8.36919 88.5341 5.00633C84.5663 2.26258 79.0742 0.294593 72.2029 0.003684Z" fill="#17B5EA"/>
<path d="M95.0892 20.405L105.974 1.50705C106.464 0.656699 106.066 -0.0370073 105.086 0.00153194C97.9804 0.284982 92.4585 2.2567 88.5342 5.0079C93.3962 8.37076 95.9649 12.896 95.9649 16.9227C95.9649 18.1833 95.6474 19.3681 95.0892 20.405Z" fill="#7DBB47"/>
<path d="M22.0532 15.2571C23.1124 15.2571 24.0538 15.4436 24.8774 15.8178C25.701 16.1907 26.4005 16.7017 26.981 17.3506C27.5589 17.9983 27.9943 18.7704 28.2895 19.6655C28.5834 20.5593 28.731 21.5178 28.731 22.5385C28.731 22.9127 28.7149 23.2807 28.6864 23.645C28.6566 24.0092 28.6231 24.2976 28.5834 24.514H18.8185C18.8954 25.6938 19.3072 26.5478 20.0538 27.0799C20.798 27.6095 21.7779 27.8743 22.9958 27.8743C23.6619 27.8743 24.3428 27.8109 25.0399 27.6841C25.7344 27.5561 26.3968 27.3746 27.0231 27.1384C27.2402 27.5312 27.425 28.0036 27.5837 28.5531C27.74 29.1039 27.8281 29.6931 27.8479 30.3222C26.3186 30.9115 24.5921 31.2074 22.6709 31.2074C21.2594 31.2074 20.0489 31.0097 19.0393 30.6168C18.0296 30.224 17.2048 29.6795 16.5686 28.9808C15.9298 28.2833 15.4597 27.4529 15.1558 26.4894C14.852 25.5259 14.7007 24.4754 14.7007 23.3354C14.7007 22.2153 14.8569 21.1635 15.1707 20.1814C15.4845 19.198 15.9509 18.3427 16.5686 17.6154C17.1862 16.8894 17.9503 16.3138 18.8619 15.8911C19.7748 15.4684 20.8377 15.2571 22.0532 15.2571ZM67.1902 15.2572C69.2305 15.2572 70.8243 15.7495 71.9704 16.7316C73.1176 17.715 73.6907 19.2864 73.6907 21.4484V30.2937C73.0048 30.51 72.1713 30.7164 71.1914 30.9128C70.2104 31.108 69.1028 31.2075 67.8674 31.2075C66.8677 31.2075 65.9511 31.118 65.1176 30.9414C64.2841 30.7649 63.5673 30.469 62.9707 30.0563C62.3716 29.6448 61.9114 29.1139 61.5877 28.465C61.264 27.816 61.1028 27.0204 61.1028 26.0768C61.1028 25.1332 61.3037 24.3425 61.7056 23.7048C62.1062 23.0658 62.6271 22.5536 63.2646 22.1707C63.9009 21.7877 64.6128 21.5118 65.3967 21.3452C66.1806 21.1786 66.9657 21.0953 67.7496 21.0953C68.3189 21.0953 68.9465 21.1251 69.6324 21.1823V20.8292C69.6324 20.3581 69.5542 19.9739 69.3967 19.6805C69.2404 19.3846 69.0246 19.1546 68.7505 18.9868C68.4739 18.8202 68.1366 18.7071 67.7359 18.6474C67.3328 18.5877 66.8863 18.5592 66.3964 18.5592C65.3384 18.5592 64.2097 18.7655 63.0153 19.1795C62.74 18.6673 62.5341 18.1862 62.3964 17.7337C62.26 17.2811 62.1905 16.7416 62.1905 16.1125C63.0538 15.8179 63.9158 15.6016 64.779 15.4636C65.6423 15.3256 66.4448 15.2572 67.1902 15.2572ZM2.29457 15.4347C3.03876 15.4347 3.82388 15.4932 4.64744 15.6113L7.58946 25.8901L10.4781 15.6113C10.8701 15.5528 11.2484 15.5131 11.6105 15.4932C11.974 15.4745 12.3411 15.4646 12.7144 15.4646C13.0667 15.4646 13.4239 15.4745 13.7873 15.4932C14.1495 15.5131 14.5278 15.5528 14.9197 15.6113L9.88279 30.8542C9.47225 30.9126 9.07535 30.9561 8.69209 30.9859C8.30884 31.0158 7.90202 31.0307 7.47163 31.0307C7.07969 31.0307 6.69643 31.0158 6.32434 30.9859C5.95101 30.9561 5.53923 30.9126 5.08899 30.8542L0 15.6113C0.333643 15.5727 0.715659 15.533 1.14729 15.4932C1.57767 15.4546 1.96093 15.4347 2.29457 15.4347ZM49.8533 10.7441V15.6113H53.5804C53.6846 16.2441 53.7367 16.8644 53.7367 17.4612C53.7367 18.0405 53.6846 18.6646 53.5804 19.2974H49.8533V24.3945C49.8533 25.0111 49.9016 25.5084 49.9996 25.8863C50.0976 26.2643 50.2402 26.5626 50.4263 26.7802C50.6123 27.0002 50.843 27.1494 51.1171 27.229C51.3925 27.3086 51.622 27.3483 51.9953 27.3483C52.288 27.3483 52.546 27.3235 52.83 27.2737C53.114 27.224 53.222 27.1929 53.4725 27.1382C53.6064 27.5162 53.7069 27.9103 53.7652 28.3168C53.8247 28.7258 53.8545 29.1224 53.8545 29.4406C53.8545 29.6607 53.8495 29.9665 53.8396 30.1145C53.8297 30.2636 53.8148 30.5633 53.795 30.7025C52.8933 30.9213 52.0697 31.0307 51.1097 31.0307C49.3249 31.0307 48.0871 30.608 47.1469 29.7626C46.2055 28.9173 45.7342 27.5398 45.7342 25.6302V15.6113L48.5373 10.7441H49.8533ZM38.6513 15.345C40.3679 15.345 41.6603 15.8137 42.5285 16.7523C43.3942 17.6897 43.8296 19.1666 43.8296 21.1793V30.8527C43.1276 30.972 42.4355 31.0305 41.7533 31.0305C41.0699 31.0305 40.3778 30.972 39.6758 30.8527V22.292C39.6758 21.2378 39.5158 20.4272 39.1933 19.8603C38.8721 19.2934 38.3114 19.0099 37.5114 19.0099C37.179 19.0099 36.8392 19.0584 36.4869 19.1566C36.1372 19.2536 35.8197 19.4451 35.5369 19.7273C35.2541 20.012 35.0246 20.4073 34.8497 20.9158C34.6749 21.423 34.5868 22.0881 34.5868 22.9086V30.8527C33.8848 30.972 33.1927 31.0305 32.5093 31.0305C31.8271 31.0305 31.135 30.972 30.433 30.8527V15.6968C30.7059 15.6384 30.9787 15.5936 31.2528 15.565C31.5245 15.5352 31.8271 15.5203 32.1595 15.5203C32.4894 15.5203 32.7834 15.5352 33.0364 15.565C33.2894 15.5936 33.5536 15.6384 33.8252 15.6968C33.8848 15.795 33.9381 15.9367 33.9877 16.122C34.0349 16.3085 34.0783 16.5036 34.118 16.7088C34.1576 16.9127 34.1911 17.1141 34.2209 17.3092C34.2507 17.5044 34.2755 17.671 34.2941 17.8078C34.4888 17.5144 34.722 17.221 34.9961 16.9276C35.269 16.6354 35.5852 16.3706 35.9474 16.1369C36.3071 15.9019 36.7114 15.7105 37.1604 15.565C37.6094 15.4183 38.1055 15.345 38.6513 15.345ZM57.7059 15.434C58.3534 15.434 59.0293 15.4924 59.7351 15.6105V30.8534C59.0293 30.9703 58.3422 31.03 57.6762 31.03C57.03 31.03 56.3527 30.9703 55.647 30.8534V15.6105C56.3527 15.4924 57.0399 15.434 57.7059 15.434ZM68.1328 23.8067C67.1716 23.8067 66.4113 23.9758 65.8531 24.3127C65.2938 24.6496 65.0147 25.1929 65.0147 25.9425C65.0147 26.4435 65.1214 26.8289 65.3384 27.0975C65.5542 27.3685 65.8135 27.5649 66.1173 27.6905C66.4212 27.8148 66.7437 27.8919 67.0885 27.9205C67.4308 27.9503 67.7297 27.964 67.9852 27.964C68.2792 27.964 68.5744 27.9403 68.8671 27.8919C69.161 27.8434 69.4165 27.8011 69.6324 27.7613V23.9509C69.3967 23.9124 69.1424 23.8788 68.8671 23.8502C68.593 23.8216 68.3474 23.8067 68.1328 23.8067ZM21.9949 18.523C21.0138 18.523 20.2696 18.7915 19.7599 19.3273C19.2489 19.8631 18.945 20.619 18.847 21.5949H24.7893C24.7496 20.6762 24.4892 19.9353 24.0092 19.3708C23.5279 18.8064 22.8569 18.523 21.9949 18.523Z" fill="#0B3254"/>
</svg>
